<svg xmlns="http://www.w3.org/2000/svg" viewBox="0 0 512 512" fill="currentColor">
  <path d="M432 32H80c-26.51 0-48 21.49-48 48v352c0 26.51 21.49 48 48 48h352c26.51 0 48-21.49 48-48V80c0-26.51-21.49-48-48-48zM256 384c-70.692 0-128-57.308-128-128S185.308 128 256 128s128 57.308 128 128-57.308 128-128 128zm0-224c-53.02 0-96 42.98-96 96s42.98 96 96 96 96-42.98 96-96-42.98-96-96-96z"/>
  <path d="M256 176c-44.112 0-80 35.888-80 80s35.888 80 80 80 80-35.888 80-80-35.888-80-80-80zm0 128c-26.468 0-48-21.532-48-48s21.532-48 48-48 48 21.532 48 48-21.532 48-48 48z"/>
</svg>
